<svg width="30" height="30" viewBox="0 0 30 30" fill="none" xmlns="http://www.w3.org/2000/svg">
<rect width="30" height="30" rx="15" fill="#A0AEC0"/>
<path fill-rule="evenodd" clip-rule="evenodd" d="M10.282 10.6482C10.282 8.08067 12.3936 6 14.9992 6C17.6048 6 19.7179 8.08067 19.7179 10.6482C19.7179 13.2172 17.6048 15.2979 14.9992 15.2979C12.3936 15.2979 10.282 13.2172 10.282 10.6482ZM15.0336 25C18.1488 25 20.968 23.7711 23 21.794V20.3915C23 18.6956 21.568 17.3191 19.8 17.3191H10.2C8.432 17.3191 7 18.6956 7 20.3915V21.7233C9.0368 23.7403 11.8832 25 15.0336 25Z" fill="white"/>
</svg>
